<?xml version="1.0" encoding="UTF-8"?>
<svg id="Capa_1" xmlns="http://www.w3.org/2000/svg" version="1.1" viewBox="0 0 512 512">
  <!-- Generator: Adobe Illustrator 29.5.1, SVG Export Plug-In . SVG Version: 2.1.0 Build 141)  -->
  <defs>
    <style>
      .st0 {
        fill: #231916;
      }
    </style>
  </defs>
  <path class="st0" d="M506,185.76c0-60.95-34.2-112.52-116.53-112.52H85.57c-43.82,0-78.36,36.17-79.48,78.45,0,0-.09,235.09-.09,260.18,0,17.88,14.06,26.9,27.3,26.9h356.17c63.31,0,116.53-48.92,116.53-109.87,0-20.94-7.26-47.88-24.4-69.84,24.4-19.44,24.4-55.43,24.4-73.3ZM396.73,378.78H89.77c-11.56,0-22.31-10.04-22.31-23.04v-193.85c0-15.22,15.58-30.72,29.86-30.72h299.4c32.26,0,51.28,22.66,51.28,47.29s-20.45,45.01-39.17,45.01h-213.65c-26.21,0-47.49,21.16-48.24,47.53h-.06v13.81h255c25.86,0,46.78,20.96,46.78,46.78s-17.9,47.2-51.94,47.2Z"/>
</svg>